<mxfile host="Electron" agent="Mozilla/5.0 (Macintosh; Intel Mac OS X 10_15_7) AppleWebKit/537.36 (KHTML, like Gecko) draw.io/26.2.15 Chrome/134.0.6998.205 Electron/35.2.1 Safari/537.36" version="26.2.15">
  <diagram id="1hcNiBZmpVh6qTVqTB2J" name="Page-1">
    <mxGraphModel dx="1936" dy="2029" grid="1" gridSize="10" guides="1" tooltips="1" connect="1" arrows="1" fold="1" page="1" pageScale="1" pageWidth="850" pageHeight="1100" math="0" shadow="0">
      <root>
        <mxCell id="0" />
        <mxCell id="1" parent="0" />
        <mxCell id="2" value="Log in Form" style="rounded=0;whiteSpace=wrap;html=1;" parent="1" vertex="1">
          <mxGeometry x="-100" y="40" width="120" height="60" as="geometry" />
        </mxCell>
        <mxCell id="5VWZfmkNNPdSa-G2nyJd-34" style="rounded=0;orthogonalLoop=1;jettySize=auto;html=1;entryX=0.738;entryY=0.916;entryDx=0;entryDy=0;entryPerimeter=0;endArrow=classic;startFill=0;endFill=1;" edge="1" parent="1" source="5VWZfmkNNPdSa-G2nyJd-2" target="5VWZfmkNNPdSa-G2nyJd-4">
          <mxGeometry relative="1" as="geometry">
            <mxPoint x="280" y="200" as="targetPoint" />
          </mxGeometry>
        </mxCell>
        <mxCell id="5VWZfmkNNPdSa-G2nyJd-35" style="rounded=0;orthogonalLoop=1;jettySize=auto;html=1;entryX=0.5;entryY=1;entryDx=0;entryDy=0;endArrow=none;startFill=1;startArrow=classic;" edge="1" parent="1" source="5VWZfmkNNPdSa-G2nyJd-2" target="5VWZfmkNNPdSa-G2nyJd-6">
          <mxGeometry relative="1" as="geometry" />
        </mxCell>
        <mxCell id="5VWZfmkNNPdSa-G2nyJd-36" style="rounded=0;orthogonalLoop=1;jettySize=auto;html=1;endArrow=classic;startFill=1;endFill=1;startArrow=classic;exitX=0.869;exitY=0.048;exitDx=0;exitDy=0;exitPerimeter=0;" edge="1" parent="1" source="5VWZfmkNNPdSa-G2nyJd-2" target="5VWZfmkNNPdSa-G2nyJd-7">
          <mxGeometry relative="1" as="geometry" />
        </mxCell>
        <mxCell id="5VWZfmkNNPdSa-G2nyJd-37" style="rounded=0;orthogonalLoop=1;jettySize=auto;html=1;endArrow=none;startFill=1;startArrow=classic;" edge="1" parent="1" source="5VWZfmkNNPdSa-G2nyJd-2" target="5VWZfmkNNPdSa-G2nyJd-9">
          <mxGeometry relative="1" as="geometry" />
        </mxCell>
        <mxCell id="5VWZfmkNNPdSa-G2nyJd-38" style="rounded=0;orthogonalLoop=1;jettySize=auto;html=1;entryX=0;entryY=0.5;entryDx=0;entryDy=0;endArrow=classic;startFill=1;startArrow=classic;endFill=1;" edge="1" parent="1" source="5VWZfmkNNPdSa-G2nyJd-2" target="5VWZfmkNNPdSa-G2nyJd-14">
          <mxGeometry relative="1" as="geometry" />
        </mxCell>
        <mxCell id="5VWZfmkNNPdSa-G2nyJd-39" style="rounded=0;orthogonalLoop=1;jettySize=auto;html=1;endArrow=none;startFill=0;" edge="1" parent="1" source="5VWZfmkNNPdSa-G2nyJd-2" target="5VWZfmkNNPdSa-G2nyJd-8">
          <mxGeometry relative="1" as="geometry" />
        </mxCell>
        <mxCell id="5VWZfmkNNPdSa-G2nyJd-40" style="rounded=0;orthogonalLoop=1;jettySize=auto;html=1;entryX=0.5;entryY=0;entryDx=0;entryDy=0;endArrow=classic;startFill=1;startArrow=classic;endFill=1;" edge="1" parent="1" source="5VWZfmkNNPdSa-G2nyJd-2" target="5VWZfmkNNPdSa-G2nyJd-13">
          <mxGeometry relative="1" as="geometry" />
        </mxCell>
        <mxCell id="5VWZfmkNNPdSa-G2nyJd-42" style="rounded=0;orthogonalLoop=1;jettySize=auto;html=1;entryX=1;entryY=0.5;entryDx=0;entryDy=0;endArrow=none;startFill=1;endFill=1;startArrow=classic;" edge="1" parent="1" source="5VWZfmkNNPdSa-G2nyJd-2" target="5VWZfmkNNPdSa-G2nyJd-12">
          <mxGeometry relative="1" as="geometry" />
        </mxCell>
        <mxCell id="5VWZfmkNNPdSa-G2nyJd-43" style="rounded=0;orthogonalLoop=1;jettySize=auto;html=1;entryX=1;entryY=0.5;entryDx=0;entryDy=0;endArrow=none;startFill=1;startArrow=classic;" edge="1" parent="1" source="5VWZfmkNNPdSa-G2nyJd-2" target="5VWZfmkNNPdSa-G2nyJd-10">
          <mxGeometry relative="1" as="geometry" />
        </mxCell>
        <mxCell id="5VWZfmkNNPdSa-G2nyJd-2" value="Database" style="strokeWidth=2;html=1;shape=mxgraph.flowchart.database;whiteSpace=wrap;" vertex="1" parent="1">
          <mxGeometry x="300" y="300" width="140" height="100" as="geometry" />
        </mxCell>
        <mxCell id="5VWZfmkNNPdSa-G2nyJd-22" style="rounded=0;orthogonalLoop=1;jettySize=auto;html=1;endArrow=none;startFill=1;entryX=0.5;entryY=1;entryDx=0;entryDy=0;endFill=1;startArrow=classic;" edge="1" parent="1" source="5VWZfmkNNPdSa-G2nyJd-3" target="2">
          <mxGeometry relative="1" as="geometry">
            <mxPoint x="-30" y="110" as="targetPoint" />
          </mxGeometry>
        </mxCell>
        <mxCell id="5VWZfmkNNPdSa-G2nyJd-3" value="Log In" style="ellipse;whiteSpace=wrap;html=1;" vertex="1" parent="1">
          <mxGeometry x="40" y="160" width="120" height="80" as="geometry" />
        </mxCell>
        <mxCell id="5VWZfmkNNPdSa-G2nyJd-23" style="rounded=0;orthogonalLoop=1;jettySize=auto;html=1;endArrow=classic;startFill=0;entryX=0.5;entryY=1;entryDx=0;entryDy=0;endFill=1;" edge="1" parent="1" source="5VWZfmkNNPdSa-G2nyJd-4" target="5VWZfmkNNPdSa-G2nyJd-5">
          <mxGeometry relative="1" as="geometry">
            <mxPoint x="160" y="40" as="targetPoint" />
          </mxGeometry>
        </mxCell>
        <mxCell id="5VWZfmkNNPdSa-G2nyJd-4" value="View Appointments" style="ellipse;whiteSpace=wrap;html=1;" vertex="1" parent="1">
          <mxGeometry x="190" y="110" width="120" height="80" as="geometry" />
        </mxCell>
        <mxCell id="5VWZfmkNNPdSa-G2nyJd-5" value="Appointments Dashboard" style="rounded=0;whiteSpace=wrap;html=1;" vertex="1" parent="1">
          <mxGeometry x="100" y="-30" width="120" height="60" as="geometry" />
        </mxCell>
        <mxCell id="5VWZfmkNNPdSa-G2nyJd-24" style="rounded=0;orthogonalLoop=1;jettySize=auto;html=1;entryX=0.5;entryY=1;entryDx=0;entryDy=0;endArrow=none;startFill=1;endFill=1;startArrow=classic;" edge="1" parent="1" source="5VWZfmkNNPdSa-G2nyJd-6" target="5VWZfmkNNPdSa-G2nyJd-15">
          <mxGeometry relative="1" as="geometry" />
        </mxCell>
        <mxCell id="5VWZfmkNNPdSa-G2nyJd-6" value="Add Appointment" style="ellipse;whiteSpace=wrap;html=1;" vertex="1" parent="1">
          <mxGeometry x="340" y="100" width="120" height="80" as="geometry" />
        </mxCell>
        <mxCell id="5VWZfmkNNPdSa-G2nyJd-25" style="rounded=0;orthogonalLoop=1;jettySize=auto;html=1;endArrow=classic;startFill=1;entryX=0.5;entryY=1;entryDx=0;entryDy=0;endFill=1;startArrow=classic;" edge="1" parent="1" source="5VWZfmkNNPdSa-G2nyJd-7" target="5VWZfmkNNPdSa-G2nyJd-16">
          <mxGeometry relative="1" as="geometry">
            <mxPoint x="620" y="100" as="targetPoint" />
          </mxGeometry>
        </mxCell>
        <mxCell id="5VWZfmkNNPdSa-G2nyJd-7" value="View/Edit Appointment" style="ellipse;whiteSpace=wrap;html=1;" vertex="1" parent="1">
          <mxGeometry x="500" y="150" width="120" height="80" as="geometry" />
        </mxCell>
        <mxCell id="5VWZfmkNNPdSa-G2nyJd-28" style="rounded=0;orthogonalLoop=1;jettySize=auto;html=1;entryX=0;entryY=0.5;entryDx=0;entryDy=0;endArrow=classic;startFill=1;startArrow=classic;endFill=1;" edge="1" parent="1" source="5VWZfmkNNPdSa-G2nyJd-8" target="5VWZfmkNNPdSa-G2nyJd-19">
          <mxGeometry relative="1" as="geometry" />
        </mxCell>
        <mxCell id="5VWZfmkNNPdSa-G2nyJd-8" value="View Monthly Appointment report" style="ellipse;whiteSpace=wrap;html=1;" vertex="1" parent="1">
          <mxGeometry x="470" y="480" width="120" height="80" as="geometry" />
        </mxCell>
        <mxCell id="5VWZfmkNNPdSa-G2nyJd-26" style="rounded=0;orthogonalLoop=1;jettySize=auto;html=1;entryX=0;entryY=0.75;entryDx=0;entryDy=0;endArrow=none;startFill=1;startArrow=classic;" edge="1" parent="1" source="5VWZfmkNNPdSa-G2nyJd-9" target="5VWZfmkNNPdSa-G2nyJd-18">
          <mxGeometry relative="1" as="geometry" />
        </mxCell>
        <mxCell id="5VWZfmkNNPdSa-G2nyJd-9" value="Add Service" style="ellipse;whiteSpace=wrap;html=1;" vertex="1" parent="1">
          <mxGeometry x="570" y="280" width="120" height="80" as="geometry" />
        </mxCell>
        <mxCell id="5VWZfmkNNPdSa-G2nyJd-10" value="Add client" style="ellipse;whiteSpace=wrap;html=1;" vertex="1" parent="1">
          <mxGeometry x="20" y="280" width="120" height="80" as="geometry" />
        </mxCell>
        <mxCell id="5VWZfmkNNPdSa-G2nyJd-30" style="rounded=0;orthogonalLoop=1;jettySize=auto;html=1;endArrow=classic;startFill=1;entryX=0.25;entryY=0;entryDx=0;entryDy=0;startArrow=classic;endFill=1;" edge="1" parent="1" source="5VWZfmkNNPdSa-G2nyJd-11" target="5VWZfmkNNPdSa-G2nyJd-21">
          <mxGeometry relative="1" as="geometry">
            <mxPoint x="200" y="690" as="targetPoint" />
          </mxGeometry>
        </mxCell>
        <mxCell id="5VWZfmkNNPdSa-G2nyJd-11" value="View/edit Client" style="ellipse;whiteSpace=wrap;html=1;" vertex="1" parent="1">
          <mxGeometry x="150" y="480" width="120" height="80" as="geometry" />
        </mxCell>
        <mxCell id="5VWZfmkNNPdSa-G2nyJd-12" value="Add Household Member" style="ellipse;whiteSpace=wrap;html=1;" vertex="1" parent="1">
          <mxGeometry x="20" y="390" width="120" height="80" as="geometry" />
        </mxCell>
        <mxCell id="5VWZfmkNNPdSa-G2nyJd-29" style="rounded=0;orthogonalLoop=1;jettySize=auto;html=1;entryX=0.75;entryY=0;entryDx=0;entryDy=0;endArrow=classic;startFill=1;startArrow=classic;endFill=1;" edge="1" parent="1" source="5VWZfmkNNPdSa-G2nyJd-13" target="5VWZfmkNNPdSa-G2nyJd-21">
          <mxGeometry relative="1" as="geometry" />
        </mxCell>
        <mxCell id="5VWZfmkNNPdSa-G2nyJd-13" value="View/edit Household Members" style="ellipse;whiteSpace=wrap;html=1;" vertex="1" parent="1">
          <mxGeometry x="310" y="520" width="120" height="80" as="geometry" />
        </mxCell>
        <mxCell id="5VWZfmkNNPdSa-G2nyJd-27" style="rounded=0;orthogonalLoop=1;jettySize=auto;html=1;entryX=0;entryY=0.5;entryDx=0;entryDy=0;endArrow=classic;startFill=1;startArrow=classic;endFill=1;" edge="1" parent="1" source="5VWZfmkNNPdSa-G2nyJd-14" target="5VWZfmkNNPdSa-G2nyJd-17">
          <mxGeometry relative="1" as="geometry" />
        </mxCell>
        <mxCell id="5VWZfmkNNPdSa-G2nyJd-14" value="view/edit Service" style="ellipse;whiteSpace=wrap;html=1;" vertex="1" parent="1">
          <mxGeometry x="560" y="400" width="120" height="80" as="geometry" />
        </mxCell>
        <mxCell id="5VWZfmkNNPdSa-G2nyJd-15" value="New Appointment Form" style="rounded=0;whiteSpace=wrap;html=1;" vertex="1" parent="1">
          <mxGeometry x="340" y="-30" width="120" height="60" as="geometry" />
        </mxCell>
        <mxCell id="5VWZfmkNNPdSa-G2nyJd-16" value="Appointment Details Form" style="rounded=0;whiteSpace=wrap;html=1;" vertex="1" parent="1">
          <mxGeometry x="560" y="30" width="120" height="60" as="geometry" />
        </mxCell>
        <mxCell id="5VWZfmkNNPdSa-G2nyJd-17" value="Service Details Form" style="rounded=0;whiteSpace=wrap;html=1;" vertex="1" parent="1">
          <mxGeometry x="770" y="420" width="120" height="60" as="geometry" />
        </mxCell>
        <mxCell id="5VWZfmkNNPdSa-G2nyJd-18" value="New Service Form" style="rounded=0;whiteSpace=wrap;html=1;" vertex="1" parent="1">
          <mxGeometry x="750" y="280" width="120" height="60" as="geometry" />
        </mxCell>
        <mxCell id="5VWZfmkNNPdSa-G2nyJd-19" value="Reports Form" style="rounded=0;whiteSpace=wrap;html=1;" vertex="1" parent="1">
          <mxGeometry x="660" y="550" width="120" height="60" as="geometry" />
        </mxCell>
        <mxCell id="5VWZfmkNNPdSa-G2nyJd-31" style="rounded=0;orthogonalLoop=1;jettySize=auto;html=1;entryX=0;entryY=0.5;entryDx=0;entryDy=0;endArrow=classic;startFill=0;startArrow=none;endFill=1;" edge="1" parent="1" source="5VWZfmkNNPdSa-G2nyJd-20" target="5VWZfmkNNPdSa-G2nyJd-10">
          <mxGeometry relative="1" as="geometry" />
        </mxCell>
        <mxCell id="5VWZfmkNNPdSa-G2nyJd-20" value="New Client" style="rounded=0;whiteSpace=wrap;html=1;" vertex="1" parent="1">
          <mxGeometry x="-180" y="350" width="120" height="60" as="geometry" />
        </mxCell>
        <mxCell id="5VWZfmkNNPdSa-G2nyJd-21" value="View/Edit Client details" style="rounded=0;whiteSpace=wrap;html=1;" vertex="1" parent="1">
          <mxGeometry x="170" y="700" width="120" height="60" as="geometry" />
        </mxCell>
        <mxCell id="5VWZfmkNNPdSa-G2nyJd-32" style="rounded=0;orthogonalLoop=1;jettySize=auto;html=1;entryX=0.027;entryY=0.647;entryDx=0;entryDy=0;entryPerimeter=0;endArrow=classic;startFill=0;endFill=1;" edge="1" parent="1" source="5VWZfmkNNPdSa-G2nyJd-20" target="5VWZfmkNNPdSa-G2nyJd-12">
          <mxGeometry relative="1" as="geometry" />
        </mxCell>
        <mxCell id="5VWZfmkNNPdSa-G2nyJd-33" style="rounded=0;orthogonalLoop=1;jettySize=auto;html=1;entryX=0.95;entryY=0.791;entryDx=0;entryDy=0;entryPerimeter=0;endArrow=classic;startFill=0;startArrow=none;endFill=1;" edge="1" parent="1" source="5VWZfmkNNPdSa-G2nyJd-2" target="5VWZfmkNNPdSa-G2nyJd-3">
          <mxGeometry relative="1" as="geometry" />
        </mxCell>
        <mxCell id="5VWZfmkNNPdSa-G2nyJd-41" style="rounded=0;orthogonalLoop=1;jettySize=auto;html=1;entryX=0.5;entryY=0;entryDx=0;entryDy=0;endArrow=classic;startFill=1;startArrow=classic;endFill=1;exitX=0.177;exitY=0.941;exitDx=0;exitDy=0;exitPerimeter=0;" edge="1" parent="1" source="5VWZfmkNNPdSa-G2nyJd-2" target="5VWZfmkNNPdSa-G2nyJd-11">
          <mxGeometry relative="1" as="geometry" />
        </mxCell>
      </root>
    </mxGraphModel>
  </diagram>
</mxfile>
